<?xml version="1.0" standalone="no"?>
<!DOCTYPE svg PUBLIC "-//W3C//DTD SVG 20010904//EN"
 "http://www.w3.org/TR/2001/REC-SVG-20010904/DTD/svg10.dtd">
<svg version="1.0" xmlns="http://www.w3.org/2000/svg"
 width="1228.000000pt" height="732.000000pt" viewBox="0 0 1228.000000 732.000000"
 preserveAspectRatio="xMidYMid meet">

<g transform="translate(0.000000,732.000000) scale(0.100000,-0.100000)"
fill="#fff" stroke="none">
<path d="M7350 5886 l-1421 -1421 -29 35 c-16 19 -30 39 -30 44 0 4 -13 25
-30 46 -17 21 -30 40 -30 43 0 5 -204 316 -220 334 -5 7 -10 16 -11 20 0 4
-24 42 -53 83 l-53 75 -261 3 -262 2 0 -977 0 -978 2050 2050 c1127 1128 2050
2053 2050 2056 0 4 -63 6 -140 6 l-139 0 -1421 -1421z m-1870 -1582 c0 -8 3
-14 8 -14 4 0 18 -20 32 -45 14 -25 27 -45 30 -45 3 0 14 -15 24 -34 l18 -35
-65 -65 c-35 -36 -67 -66 -71 -66 -3 0 -6 77 -6 171 0 151 2 170 15 159 8 -7
15 -19 15 -26z"/>
<path d="M8835 5113 c4 -21 10 -42 15 -48 4 -5 11 -30 15 -55 4 -24 11 -51 16
-60 4 -8 13 -35 19 -60 12 -48 34 -132 51 -190 5 -19 11 -39 12 -45 3 -9 16
-52 62 -209 8 -26 15 -57 15 -67 0 -10 4 -20 9 -23 5 -4 12 -29 16 -56 4 -27
11 -52 15 -55 5 -3 11 -24 15 -48 4 -23 11 -46 15 -52 4 -5 11 -30 15 -55 4
-24 11 -51 16 -60 8 -15 23 -70 40 -150 6 -25 14 -54 19 -65 5 -11 12 -36 16
-55 3 -19 10 -39 14 -45 4 -5 11 -30 15 -55 4 -25 11 -49 15 -55 4 -5 11 -30
15 -55 4 -25 11 -49 15 -55 4 -5 11 -30 15 -55 4 -25 11 -49 15 -55 4 -5 11
-30 15 -55 4 -24 11 -51 16 -60 4 -8 13 -35 18 -60 9 -43 20 -83 56 -218 9
-31 20 -77 26 -102 5 -25 14 -53 19 -62 6 -10 10 -25 10 -33 0 -13 35 -15 260
-15 l260 0 0 24 c0 14 4 27 9 30 5 4 12 29 16 56 4 27 11 52 15 55 5 3 12 26
16 50 3 25 10 47 14 50 5 3 11 24 15 48 4 23 11 47 15 52 4 6 11 27 14 49 4
21 11 46 16 55 5 9 13 34 19 56 5 22 17 65 26 95 9 30 21 73 26 95 5 22 13 49
18 60 5 11 14 40 21 65 6 25 16 63 21 85 6 22 15 49 19 60 5 11 12 36 16 55 3
19 10 40 14 45 4 6 11 27 14 49 4 21 11 46 16 55 5 9 16 43 25 76 10 33 23 79
31 103 8 23 14 51 14 62 0 10 4 21 9 25 6 3 13 26 17 50 3 25 10 45 14 45 8 0
40 -93 40 -116 0 -8 4 -22 9 -32 14 -24 51 -152 51 -173 0 -10 4 -20 9 -23 4
-3 11 -24 15 -46 3 -23 10 -49 15 -58 7 -14 35 -105 56 -182 5 -18 20 -69 37
-130 7 -25 16 -49 19 -55 4 -5 10 -27 13 -49 4 -21 11 -46 16 -55 5 -9 14 -36
20 -61 6 -25 16 -63 21 -85 6 -22 14 -47 19 -56 5 -9 12 -34 16 -55 3 -22 10
-43 14 -49 4 -5 11 -29 15 -52 4 -24 10 -45 15 -48 4 -3 11 -25 14 -50 4 -24
11 -47 15 -50 5 -2 12 -26 16 -52 4 -27 12 -54 17 -60 8 -10 72 -13 257 -13
l247 0 13 48 c7 26 15 54 18 62 10 27 25 79 43 150 6 25 15 52 20 61 5 9 11
37 15 63 4 25 11 48 15 51 5 3 11 28 15 55 4 27 11 52 15 55 5 3 12 26 16 50
3 25 10 47 14 50 5 3 11 28 15 55 4 27 11 52 15 55 5 3 11 24 15 48 4 23 11
47 15 52 4 6 11 30 15 55 4 25 11 50 15 55 4 6 11 30 15 55 4 25 11 50 15 55
4 6 11 26 14 45 4 19 11 44 16 55 8 19 14 40 41 148 6 23 14 49 18 57 5 9 12
36 16 60 4 25 11 50 15 55 4 6 11 26 14 45 4 19 11 44 16 55 4 11 13 40 20 65
6 25 18 70 26 100 8 30 21 76 27 102 7 25 15 50 20 54 4 4 7 15 7 24 0 10 9
46 21 81 11 35 22 71 24 79 3 8 9 31 14 50 5 19 15 55 21 80 6 25 15 52 19 60
5 9 12 30 16 48 l7 32 -259 0 c-293 0 -275 6 -288 -88 -4 -29 -11 -54 -15 -57
-5 -3 -12 -30 -15 -60 -4 -31 -11 -57 -15 -60 -5 -3 -11 -29 -15 -58 -4 -28
-11 -56 -15 -62 -4 -5 -11 -30 -15 -55 -4 -25 -11 -49 -15 -55 -4 -5 -11 -34
-15 -62 -4 -29 -10 -55 -15 -58 -4 -3 -11 -29 -15 -60 -3 -30 -10 -57 -15 -60
-4 -3 -11 -29 -15 -58 -4 -28 -11 -56 -15 -62 -4 -5 -11 -30 -15 -55 -4 -25
-11 -49 -15 -55 -4 -5 -11 -32 -15 -60 -4 -27 -10 -54 -13 -60 -4 -5 -12 -32
-19 -60 -6 -27 -18 -77 -27 -110 -8 -33 -20 -82 -26 -110 -6 -27 -15 -59 -20
-70 -5 -11 -11 -31 -14 -45 -3 -14 -12 -52 -21 -85 -9 -33 -19 -72 -22 -87 -7
-39 -20 -35 -28 9 -4 21 -10 42 -13 48 -7 9 -14 39 -42 160 -6 28 -15 59 -20
70 -5 11 -14 41 -19 68 -6 26 -16 68 -22 95 -5 26 -14 56 -19 67 -5 11 -13 40
-19 65 -5 25 -17 72 -26 105 -9 33 -18 71 -21 85 -3 14 -9 34 -14 45 -5 11
-14 43 -20 70 -19 82 -36 149 -43 165 -3 8 -11 38 -17 65 -29 124 -35 151 -42
160 -3 6 -9 33 -13 60 -4 28 -11 55 -15 60 -4 6 -11 30 -15 55 -4 25 -11 50
-15 55 -4 6 -10 28 -14 50 -4 22 -12 52 -18 68 l-10 27 -234 0 -234 0 0 -25
c0 -14 -4 -33 -10 -43 -5 -9 -14 -37 -19 -62 -5 -25 -16 -70 -24 -100 -8 -30
-27 -100 -41 -155 -15 -55 -29 -107 -31 -115 -15 -54 -28 -102 -40 -150 -8
-30 -19 -75 -25 -100 -6 -25 -15 -52 -20 -61 -5 -9 -12 -38 -15 -65 -4 -27
-11 -53 -15 -59 -4 -5 -11 -30 -15 -55 -4 -24 -11 -51 -16 -60 -4 -8 -13 -37
-19 -65 -26 -113 -35 -150 -41 -160 -4 -5 -10 -30 -14 -55 -4 -24 -11 -51 -16
-60 -4 -8 -13 -37 -19 -65 -30 -133 -36 -154 -43 -161 -4 -4 -7 -20 -7 -36 0
-15 -4 -28 -9 -28 -12 0 -17 17 -36 106 -8 38 -21 98 -30 134 -9 36 -22 90
-29 120 -7 30 -15 62 -19 70 -6 15 -19 69 -40 170 -7 30 -15 60 -19 65 -3 6
-9 33 -13 60 -4 28 -11 55 -15 60 -5 6 -11 33 -15 60 -4 28 -11 55 -15 60 -5
6 -11 33 -15 60 -4 28 -11 55 -15 60 -4 6 -11 33 -15 60 -4 28 -10 55 -15 60
-4 6 -11 33 -15 60 -4 28 -10 55 -15 60 -4 6 -11 33 -15 60 -4 28 -10 55 -15
60 -4 6 -11 33 -15 60 -4 28 -10 55 -15 60 -4 6 -10 30 -14 54 -4 24 -12 61
-19 82 l-12 39 -259 0 -258 0 7 -37z"/>
<path d="M200 3955 l0 -1175 240 0 240 0 0 775 c0 510 3 775 10 775 6 0 10 -4
10 -9 0 -6 17 -47 39 -93 64 -137 81 -176 81 -187 0 -6 4 -11 9 -11 5 0 12
-11 15 -25 3 -13 25 -64 47 -112 71 -152 79 -172 79 -182 0 -6 5 -11 10 -11 6
0 10 -5 10 -11 0 -11 10 -35 60 -144 53 -113 70 -154 70 -164 0 -6 5 -11 10
-11 6 0 10 -5 10 -11 0 -7 20 -55 46 -108 72 -152 88 -184 97 -182 4 0 87 1
185 1 l177 0 34 73 c18 39 49 104 67 143 19 39 34 76 34 83 0 6 5 11 10 11 6
0 10 5 10 12 0 6 14 41 31 77 17 36 44 93 59 126 15 33 45 96 66 140 21 44 38
82 39 85 0 3 12 30 27 60 14 30 41 87 58 125 18 39 43 93 56 122 13 28 24 56
24 62 0 5 4 11 8 13 4 2 17 28 28 57 23 62 47 80 44 35 -1 -16 -2 -363 -1
-771 l1 -743 235 0 235 0 0 1175 0 1175 -277 0 -278 0 -34 -73 c-18 -39 -47
-100 -62 -134 -16 -35 -42 -91 -58 -125 -52 -112 -71 -157 -71 -167 0 -6 -4
-11 -10 -11 -5 0 -10 -5 -10 -11 0 -12 -10 -35 -70 -164 -21 -44 -47 -102 -59
-130 -12 -27 -28 -62 -36 -77 -8 -14 -15 -33 -15 -42 0 -9 -4 -16 -10 -16 -5
0 -10 -5 -10 -11 0 -7 -9 -30 -19 -53 -26 -55 -74 -161 -96 -211 -9 -22 -29
-67 -45 -100 -51 -112 -60 -133 -60 -144 0 -6 -4 -11 -10 -11 -5 0 -10 -7 -10
-15 0 -8 -4 -15 -10 -15 -5 0 -10 4 -10 9 0 5 -14 40 -31 78 -17 37 -37 84
-46 103 -8 19 -27 62 -43 95 -15 33 -35 78 -44 100 -24 54 -38 86 -84 185 -60
128 -82 178 -82 189 0 6 -4 11 -10 11 -5 0 -10 5 -10 11 0 12 -23 65 -92 208
-44 92 -68 146 -73 161 -2 6 -52 113 -106 227 -22 45 -44 94 -49 108 l-10 25
-285 0 -285 0 0 -1175z"/>
<path d="M6642 4527 l-232 -232 0 -338 c0 -219 -4 -337 -10 -337 -8 0 -67 83
-115 162 -70 117 -103 169 -125 200 l-27 36 -156 -156 c-87 -87 -157 -161
-157 -166 0 -8 69 -127 79 -136 8 -7 29 -41 43 -70 7 -14 15 -27 18 -30 4 -3
44 -68 90 -145 46 -77 86 -142 89 -145 3 -3 11 -14 18 -25 73 -123 127 -211
132 -215 10 -8 31 -44 37 -62 4 -10 9 -18 13 -18 3 0 17 -20 31 -45 l25 -45
242 0 243 0 0 1000 c0 550 -1 1000 -3 1000 -1 0 -107 -105 -235 -233z"/>
<path d="M7755 4593 c-22 -2 -44 -8 -50 -12 -5 -5 -29 -11 -53 -15 -24 -3 -51
-10 -60 -16 -9 -5 -46 -22 -82 -39 -36 -17 -76 -38 -89 -48 -50 -36 -181 -167
-181 -180 0 -7 -4 -13 -9 -13 -10 0 -81 -140 -81 -161 0 -8 -5 -20 -11 -26 -6
-6 -9 -18 -7 -27 3 -15 25 -17 210 -17 l208 0 62 64 c37 37 87 75 122 93 57
28 66 29 190 29 126 0 133 -1 181 -29 127 -73 209 -212 218 -370 l2 -28 -608
1 c-561 2 -608 1 -614 -15 -8 -20 25 -400 36 -423 5 -9 12 -33 15 -55 4 -21
11 -46 16 -55 4 -9 25 -51 46 -93 20 -43 41 -78 45 -78 5 0 9 -6 9 -13 0 -11
123 -136 172 -174 55 -42 180 -94 283 -116 112 -24 467 -7 500 24 5 5 16 9 25
9 57 0 265 144 330 229 140 182 179 289 202 544 13 148 -7 367 -41 442 -5 11
-17 43 -27 70 -41 115 -136 243 -237 319 -79 59 -201 126 -229 126 -10 0 -18
4 -18 9 0 5 -24 12 -52 16 -29 4 -59 12 -66 17 -13 11 -288 19 -357 11z m547
-1143 c-2 -19 -7 -39 -12 -45 -4 -5 -10 -23 -14 -40 -8 -37 -38 -95 -48 -95
-5 0 -8 -6 -8 -13 0 -20 -48 -61 -115 -99 -58 -32 -64 -33 -170 -33 -94 0
-117 3 -158 23 -86 41 -143 111 -185 227 -14 39 -22 102 -14 109 3 4 168 5
366 4 l361 -3 -3 -35z"/>
<path d="M3615 4564 c-107 -25 -149 -41 -250 -90 -63 -31 -99 -58 -175 -134
-82 -82 -102 -108 -142 -190 -26 -52 -49 -106 -53 -120 -3 -14 -10 -34 -15
-45 -34 -76 -47 -434 -22 -565 18 -89 50 -183 83 -243 6 -10 20 -37 31 -60 24
-46 197 -226 240 -248 142 -75 206 -99 318 -121 121 -23 433 -8 465 23 5 5 16
9 25 9 21 0 136 58 189 95 59 41 130 111 167 165 45 65 91 155 99 192 4 18 9
41 11 51 5 16 -10 17 -215 17 -202 0 -220 -1 -225 -18 -15 -47 -162 -162 -208
-162 -9 0 -20 -4 -23 -10 -3 -6 -50 -10 -105 -10 -55 0 -102 4 -105 10 -3 6
-15 10 -26 10 -35 0 -107 49 -164 113 -30 33 -55 65 -55 71 -1 6 -9 29 -20 51
-11 22 -19 51 -20 65 0 15 -5 31 -11 37 -6 6 -9 25 -7 42 l3 32 604 -1 604 0
-5 185 c-4 102 -10 191 -16 198 -5 6 -12 34 -16 61 -3 27 -10 54 -15 60 -4 6
-11 28 -15 49 -4 20 -11 37 -16 37 -6 0 -10 5 -10 11 0 12 -38 94 -55 118 -30
44 -196 199 -230 216 -22 11 -41 23 -43 28 -2 4 -9 7 -15 7 -7 0 -25 7 -40 15
-15 8 -45 17 -65 21 -20 4 -43 11 -51 17 -13 11 -366 21 -406 11z m289 -364
c69 -23 87 -34 138 -82 38 -37 78 -102 78 -128 0 -9 4 -20 9 -25 5 -6 11 -34
14 -62 l6 -53 -365 0 -366 0 7 43 c4 23 11 47 15 52 4 6 11 25 15 43 3 17 11
32 16 32 5 0 9 6 9 14 0 8 20 36 45 64 41 46 107 86 180 110 50 16 136 13 199
-8z"/>
<path d="M3960 1837 c-805 -804 -1541 -1537 -1636 -1629 l-171 -168 146 0 146
0 525 522 c289 288 901 898 1360 1355 l835 833 133 0 132 0 0 275 c0 151 -1
275 -2 275 -2 0 -662 -658 -1468 -1463z"/>
</g>
</svg>
